<?xml version="1.0" encoding="UTF-8" standalone="no"?>
<!-- Created with Inkscape (http://www.inkscape.org/) -->

<svg
   width="512"
   height="512"
   viewBox="0 0 512 512"
   version="1.1"
   id="svg1"
   inkscape:version="1.3.2 (091e20e, 2023-11-25, custom)"
   sodipodi:docname="Symbol-Light.svg"
   inkscape:export-filename="Symbol.png"
   inkscape:export-xdpi="3"
   inkscape:export-ydpi="3"
   xmlns:inkscape="http://www.inkscape.org/namespaces/inkscape"
   xmlns:sodipodi="http://sodipodi.sourceforge.net/DTD/sodipodi-0.dtd"
   xmlns="http://www.w3.org/2000/svg"
   xmlns:svg="http://www.w3.org/2000/svg">
  <sodipodi:namedview
     id="namedview1"
     pagecolor="#505050"
     bordercolor="#eeeeee"
     borderopacity="1"
     inkscape:showpageshadow="0"
     inkscape:pageopacity="0"
     inkscape:pagecheckerboard="0"
     inkscape:deskcolor="#505050"
     inkscape:document-units="px"
     inkscape:zoom="2"
     inkscape:cx="165"
     inkscape:cy="262.75"
     inkscape:window-width="3440"
     inkscape:window-height="1377"
     inkscape:window-x="-8"
     inkscape:window-y="1072"
     inkscape:window-maximized="1"
     inkscape:current-layer="symbol" />
  <defs
     id="defs1" />
  <g
     inkscape:label="Layer 1"
     inkscape:groupmode="layer"
     id="layer1">
    <g
       id="symbol"
       transform="matrix(6.711072,0,0,6.711072,-151.83105,-1337.2504)">
      <path
         id="path1-6"
         mask="none"
         style="fill:#18b0dd;fill-opacity:1;stroke-width:0.264583"
         d="M 59.606343 202.40636 A 35 35 0 0 0 24.606171 237.40624 A 35 35 0 0 0 59.606343 272.40613 A 35 35 0 0 0 76.717466 267.83899 A 34.2145 34.2145 0 0 1 62.718911 270.85086 A 34.2145 34.2145 0 0 1 28.504521 236.63647 A 34.2145 34.2145 0 0 1 61.827776 202.48552 A 35 35 0 0 0 59.606343 202.40636 z " />
      <path
         id="path16-5-6"
         style="fill:#18b0dd;fill-opacity:1;stroke:none;stroke-width:0;stroke-linecap:butt;stroke-linejoin:miter;stroke-dasharray:none;stroke-opacity:1"
         inkscape:transform-center-x="1.5748032e-06"
         inkscape:transform-center-y="-5.0000023"
         d="m 80.172849,216.46398 -23.004988,39.84571 h 9.202133 l 13.802855,-23.90757 4.600722,-7.96873 z" />
      <path
         id="path16"
         style="fill:#ffffff;fill-opacity:1;stroke:none;stroke-width:0;stroke-linecap:butt;stroke-linejoin:miter;stroke-dasharray:none;stroke-opacity:1"
         inkscape:transform-center-x="1.5748032e-06"
         inkscape:transform-center-y="-5.0000023"
         d="m 61.769087,216.46384 -23.004989,39.84571 h 9.202134 l 13.802855,-23.90755 9.202134,15.93883 4.600721,-7.96942 z m 15.087054,26.1314 -0.748136,1.29655 -3.852585,6.67286 3.316522,5.7449 h 9.202134 z" />
    </g>
  </g>
</svg>
